<?xml version="1.0" encoding="UTF-8"?>
<svg width="1000px" height="1000px" viewBox="0 0 1000 1000" version="1.1" xmlns="http://www.w3.org/2000/svg" xmlns:xlink="http://www.w3.org/1999/xlink">
    <title>Bear-M</title>
    <g id="Page-1" stroke="none" stroke-width="1" fill="none" fill-rule="evenodd">
        <g id="Logo" transform="translate(-3138.000000, -1697.000000)" fill-rule="nonzero">
            <g id="Bear-M" transform="translate(3638.000000, 2197.000000) scale(-1, 1) translate(-3638.000000, -2197.000000) translate(3138.000000, 1697.000000)">
                <path d="M128.03547,229.150688 C132.301507,259.952339 494.833891,50.5241915 500,81.693758 C511.128568,148.836322 849.444419,68.2142538 849.444419,344.614791 C850.829577,393.931918 1006.73895,663.668033 908.502997,791.434439 C758.823331,986.108913 517.542585,1000 429.551547,999.044465 C324.265794,965.848004 128.631801,336.31791 128.03547,229.150688 Z" id="Path" fill="#FCF8F9"></path>
                <path d="M328.635231,250.052619 C308.529019,261.537511 287.875855,272.198192 268.460634,284.72436 C246.229227,299.067475 225.097139,315.06725 203.17764,331.318029 C189.500805,343.404498 184.204027,357.616304 186.047463,375.197702 C186.547749,400.722698 186.358183,425.72181 188.201144,450.574358 C188.902151,460.027393 194.273702,469.143667 197.62939,478.920171 C203.538398,486.208499 208.593199,493.858447 215.373602,499.487492 C220.480672,503.72731 220.895124,507.127048 218.785832,512.461695 C207.790594,540.270392 197.911862,568.552824 185.825091,595.888349 C159.336551,655.794809 125.321307,710.957383 76.6529633,756.317425 C74.8497878,757.998054 73.7485922,760.411004 72.3202507,762.482697 C18.427718,673.721769 -4.91468718,577.524074 0.85666832,474.438244 C6.15054986,379.88134 35.2135871,292.778948 90.1034156,215.112692 C172.780617,98.1287377 285.670569,26.4966349 429.269071,5.9939841 C563.198819,-13.1281709 685.954019,17.2449824 794.505608,97.4050073 C901.695817,176.559801 967.241395,282.523375 990.976272,412.115184 C1016.06569,549.102614 988.919012,676.183216 908.502997,791.434439 C907.681119,792.612313 906.825153,793.766966 904.795143,794.497041 C905.346607,789.561695 905.940038,784.630565 906.443078,779.690446 C913.216645,713.169322 903.650533,648.109471 887.773065,583.732226 C867.11482,499.970869 837.945442,419.358854 794.44465,344.220188 C791.111845,338.463489 787.457069,332.88809 783.582389,326.631815 C804.562892,307.879519 815.112296,284.738405 811.905867,256.458736 C809.657001,236.625045 800.808037,219.922862 786.086479,206.292689 C757.541011,179.863388 706.518359,169.79726 668.355032,207.39557 C650.599282,201.077739 633.487382,193.684833 615.65748,188.885665 C558.839235,173.592181 502.234436,176.574921 446.337482,193.90115 C438.640156,196.287088 433.604632,195.715801 426.970259,190.650928 C396.735221,167.568609 362.844692,158.078451 324.821366,167.13738 C320.362135,168.199768 316.050974,169.866541 312.805428,170.89401 C322.092674,180.364927 331.437841,189.894922 340.551236,200.353003 C333.198243,205.624641 327.186785,210.656043 323.936633,218.847647 C319.353444,230.399012 323.085795,240.242597 328.635231,250.052619 Z" id="Path" fill="#EE3402"></path>
                <path d="M72.0461095,763.006331 C73.3517416,760.399973 74.5777387,758.520934 76.3759285,756.842426 C124.909705,711.539635 159.059846,656.279776 185.475146,596.448927 C197.528497,569.147904 206.079233,543.255709 217.044069,515.482111 C219.147529,510.154197 220.096871,504.303916 215.003922,500.069449 C208.242267,494.447509 202.337819,486.957136 197.083431,479.693108 C220.766032,479.394406 241.325921,455.380064 238.740412,429.208486 C220.451105,425.127414 206.394709,414.886794 197.083431,398.915021 C192.760945,391.500451 188.925046,383.733499 185.475146,375.822837 C183.51736,358.84724 189.244125,343.4779 202.816105,331.93728 C208.737703,329.996303 215.001519,328.617459 220.776448,327.698539 C245.768279,323.722146 270.347513,325.571956 293.726881,335.432476 C315.123799,344.456829 321.494447,360.181844 310.790899,380.680007 C304.395254,392.928271 295.553053,404.319422 286.049324,414.491083 C275.785121,425.476796 261.922122,430.807188 246.352163,430.295856 C248.360179,460.491514 275.675617,486.463833 308.513831,488.112419 C335.594304,489.471982 362.81302,488.350717 389.861725,490.033666 C402.70391,490.832713 415.916837,494.106183 427.845203,498.94371 C444.467177,505.684811 451.668556,519.984715 449.039349,534.955612 C446.539295,549.191045 434.533903,560.750131 417.362132,561.739881 C398.355576,562.835386 379.200738,561.332293 360.108726,561.104234 C348.003961,560.959676 335.896023,561.077211 323.710727,561.077211 C408.97987,693.969956 453.53279,837.711244 429.551547,999.044465 C273.412089,974.279202 155.173565,894.089287 72.0461095,763.006331 Z" id="Path" fill="#830110"></path>
                <path d="M708.345704,304.202275 C694.130435,299.167467 690.858216,287.852031 690.251136,275.546034 C689.141148,253.046218 706.872754,232.554039 729.446409,229.443028 C742.678977,227.619428 757.003211,234.48086 763.470626,245.740905 C770.81974,258.535968 769.257584,275.422208 758.71692,287.710859 C745.643004,302.952717 729.049972,309.107205 708.345704,304.202275 Z" id="Path" fill="#850312"></path>
                <path d="M619.518989,339.09296 C622.664645,340.808106 625.297624,342.285717 629.682997,344.746747 C607.972387,354.327674 587.926253,363.742308 567.41551,371.996673 C556.411709,376.425059 545.297516,373.226952 536.008996,366.46809 C528.219127,360.79977 521.482752,353.676133 512.9683,346.016978 C521.265367,337.515326 527.851878,329.158334 535.992282,322.801408 C548.258651,313.222516 562.508773,311.913613 576.767583,318.36668 C591.018273,324.816196 604.940241,331.995783 619.518989,339.09296 Z" id="Path" fill="#840312"></path>
                <path d="M328.219365,250.457711 C322.100295,240.852552 318.895524,230.58032 323.528958,219.242209 C326.814742,211.201834 332.508594,205.40976 340.114596,200.741324 C348.44921,210.25707 355.611764,226.926477 357.348703,238.154682 C348.107992,242.508794 338.05051,246.041343 328.219365,250.457711 Z" id="Path" fill="#89020D"></path>
                <path d="M185.878963,375.458915 C189.502939,382.828056 192.270792,391.197948 196.659375,398.655111 C206.113037,414.718635 220.384376,425.018082 238.953353,429.122598 C241.578399,455.44452 222.298315,479.360326 198.139364,479.151741 C194.207948,469.825302 188.769338,460.66823 188.059579,451.172892 C186.19361,426.209126 186.385543,401.098139 185.878963,375.458915 Z" id="Path" fill="#FCF8F9"></path>
            </g>
        </g>
    </g>
</svg>