<?xml version="1.0" encoding="UTF-8"?>
<svg width="1000px" height="1000px" viewBox="0 0 1000 1000" version="1.1" xmlns="http://www.w3.org/2000/svg" xmlns:xlink="http://www.w3.org/1999/xlink">
    <title>Hedgehog</title>
    <g id="Page-1" stroke="none" stroke-width="1" fill="none" fill-rule="evenodd">
        <g id="Logo" transform="translate(-913.000000, -1697.000000)" fill-rule="nonzero">
            <g id="Hedgehog" transform="translate(913.000000, 1697.000000)">
                <path d="M229.970296,82.8510917 C98.8914533,172.611045 21.0327148,295.203261 4.04160854,454.798824 C-2.54235715,516.641317 3.12346665,577.737072 21.2948347,637.287919 C54.1749691,745.042037 115.775989,833.044397 205.882038,899.798848 C320.771016,984.91344 449.653175,1015.03786 590.119654,990.39317 C686.765012,973.436796 770.81965,929.054872 841.83273,861.37013 C937.386122,770.295302 990.836436,658.513897 998.571659,525.759453 C1002.93276,450.912754 991.174524,378.491926 961.503119,309.576959 C916.821304,205.799084 845.586302,124.92242 748.528121,68.0277031 C645.292269,7.51166116 534.015263,-11.3511543 416.289208,8.83916391 C349.390331,20.3125038 287.633799,45.236397 229.970296,82.8510917 Z" id="Shape" fill="#F6E3DC"></path>
                <path d="M230.003661,82.954306 C287.331258,45.6018928 349.125627,20.6790977 416.065491,9.20626337 C533.863674,-10.9831653 645.208857,7.87881911 748.50796,68.3921947 C845.625607,125.284405 916.904253,206.157505 961.613444,309.930809 C991.303028,378.842739 1003.06846,451.260376 998.704695,526.103777 C990.964732,658.852373 937.481671,770.628853 841.869735,861.699667 C770.813146,929.381427 686.70701,973.761397 590.002439,990.717023 C449.449899,1015.36063 320.488777,985.237535 205.529409,900.126693 C115.368153,833.375183 53.7293922,745.3767 20.8291128,637.62733 C2.64661156,578.079106 -3.02268357,516.986043 3.56531598,455.146275 C20.5668324,295.557744 98.4732733,172.970929 230.003661,82.954306 M235.745303,826.935108 C237.374442,832.045141 239.003582,837.15525 240.9884,843.078622 C242.555768,846.461418 243.823029,850.028598 245.749537,853.190639 C250.574043,861.108843 254.094774,871.076898 261.07492,876.13008 C271.641942,883.78 284.246235,889.452889 296.79507,893.298136 C322.68523,901.231394 349.005507,907.845843 375.351878,914.146082 C393.387129,918.458823 411.686886,921.833213 430.013803,924.684253 C446.095768,927.18601 462.518388,927.568303 478.541626,930.339186 C500.830229,934.19345 523.232483,935.722853 545.743068,936.069156 C557.313072,936.247198 568.981821,934.297982 580.45567,935.212186 C592.117647,936.141366 599.806488,929.194598 608.669135,924.239835 C608.974339,924.06913 608.459934,922.419147 609.17327,921.053344 C610.135821,920.669599 611.089775,920.262012 612.062215,919.905546 C654.467538,904.361417 692.041168,881.436646 721.618239,846.637473 C739.364529,825.75774 752.753057,801.984023 765.386713,777.77246 C766.573831,775.497574 767.893012,773.292222 769.150801,771.054625 C769.895251,771.212799 770.639624,771.370974 771.384074,771.529072 C771.384074,793.138625 771.384074,814.748177 771.384074,837.682499 C784.404333,822.33559 792.790839,806.196587 798.90984,788.85087 C820.597771,727.371618 820.271418,664.533897 809.512045,601.250154 C802.329393,559.003556 788.42296,518.727034 772.218213,479.196836 C771.022347,476.279584 770.237959,472.63813 770.813603,469.633233 C774.249284,451.698947 773.235841,433.853224 769.587612,416.223062 C759.590263,367.910887 735.11289,327.84706 699.316781,294.520172 C692.115187,287.815288 684.345099,281.726407 676.396164,274.97923 C678.309017,274.573286 679.720779,273.926566 681.067725,274.041949 C693.652848,275.119981 706.227015,276.328757 717.635975,277.390934 C698.708122,257.351359 673.269948,246.251897 644.735759,240.152815 C651.985583,236.569664 659.132178,233.302213 666.618513,231.347342 C674.191952,229.369663 682.063368,228.220643 689.875068,227.578508 C697.432226,226.95731 705.079608,227.443869 712.28919,227.443869 C677.332394,211.30303 639.332073,208.086089 599.807706,206.502471 C614.304845,197.301867 628.558018,190.762533 643.87431,187.136284 C659.21076,183.505242 674.798481,180.945545 689.728095,178.023537 C621.259811,164.531302 553.63936,173.997936 486.667316,193.59573 C509.980734,176.52768 535.642943,164.881731 563.763904,158.611293 C497.953607,159.584392 439.714734,184.023951 384.249898,216.92545 C383.640972,216.244611 383.1511,215.835306 382.831252,215.319595 C357.984089,175.262665 297.705131,171.96971 266.306301,211.874446 C251.720082,230.412164 248.384246,251.474486 250.535055,274.345424 C254.31839,314.575792 284.62968,342.996977 324.008291,343.566559 C322.440048,346.240549 320.886715,348.923519 319.301241,351.587194 C303.039363,378.908224 287.074246,406.414365 270.363765,433.455801 C263.297504,444.890716 254.660034,455.345903 246.736735,466.246386 C246.958565,466.708226 247.180393,467.170064 247.402222,467.631904 C259.639043,462.313494 271.875828,456.995122 284.917539,451.326893 C283.682002,453.773097 282.887306,455.414828 282.034225,457.025419 C269.286535,481.092217 256.183318,504.97658 243.845584,529.253438 C212.453945,591.022678 186.075929,654.648749 175.261213,723.736735 C173.06263,737.782027 171.90326,751.991454 170.072984,767.780029 C187.243495,753.551957 203.664442,742.177829 224.381569,740.077928 C224.46852,741.170478 224.555471,742.263029 224.511198,744.520876 C224.540105,750.3971 224.569051,756.273401 224.50089,763.202365 C224.918264,767.8569 225.335637,772.51136 225.706075,778.223449 C226.123296,782.043939 226.540556,785.864427 226.958881,790.70159 C228.587031,797.469399 230.215182,804.237284 231.86064,812.038042 C233.117517,816.691737 234.374392,821.345433 235.745303,826.935108 Z" id="Shape" fill="#AB1D1D"></path>
                <path d="M323.193803,340.64686 C283.686592,340.944761 253.416336,312.439001 249.638123,272.088916 C247.490225,249.149921 250.821546,228.024922 265.388019,209.43204 C296.744342,169.408557 356.941697,172.711311 381.755224,212.887441 C382.074639,213.404687 382.563847,213.815209 383.171949,214.498075 C438.561699,181.498669 496.721731,156.986383 562.442937,156.010388 C534.360045,162.299486 508.732577,173.98009 485.450719,191.098931 C552.332099,171.442818 619.861009,161.948014 688.236604,175.480399 C673.327201,178.411102 657.760582,180.978416 642.444893,184.620263 C627.149336,188.257303 612.915459,194.816096 598.437945,204.044079 C637.908805,205.632409 675.857683,208.858924 710.767157,225.047794 C703.567335,225.047794 695.930306,224.559787 688.383378,225.182833 C680.582253,225.826879 672.721493,226.979319 665.158307,228.962883 C657.682106,230.92357 650.545186,234.200745 643.305177,237.794558 C671.800738,243.91179 697.204474,255.044282 716.106703,275.143489 C704.713189,274.078152 692.156043,272.865779 679.587958,271.784539 C678.242835,271.668812 676.832985,272.317457 674.922721,272.724609 C682.860895,279.491864 690.620464,285.598864 697.812309,292.3237 C733.559959,325.749761 758.004195,365.932809 767.988011,414.388748 C771.631301,432.071374 772.643372,449.970202 769.212342,467.957856 C768.637477,470.971695 769.420804,474.623985 770.61505,477.549917 C786.797861,517.197748 800.685468,557.594123 807.858396,599.966438 C818.603204,663.438498 818.929115,726.463209 797.270544,788.125409 C791.159827,805.522742 782.784674,821.709771 769.782041,837.102349 C769.782041,814.099779 769.782041,792.425922 769.782041,770.752065 C769.038599,770.593496 768.295233,770.434851 767.551792,770.276206 C766.295705,772.520462 764.97831,774.732376 763.792799,777.014031 C751.176246,801.297643 737.805843,825.142105 720.083577,846.083971 C690.546545,880.986697 653.023781,903.979687 610.675864,919.570072 C609.704741,919.927599 608.752078,920.336398 607.02475,920.706571 C608.359237,917.022935 610.459882,913.354014 612.838804,909.388954 C614.807185,906.361896 616.497212,903.630974 618.61305,900.733053 C622.639304,895.666827 626.239672,890.767601 630.17423,885.63646 C636.122296,877.615524 641.736094,869.826271 647.670105,861.777591 C652.273578,854.55241 656.556763,847.586808 661.230737,840.442023 C663.481574,837.89297 665.341546,835.523099 667.520136,832.903077 C669.246249,830.290411 670.653667,827.927976 672.386009,825.359072 C673.318844,824.031664 673.926603,822.910647 674.84903,821.571513 C675.740766,820.224331 676.317833,819.095267 677.21633,817.78242 C677.836548,816.921136 678.135262,816.24379 678.750694,815.314373 C679.969632,813.104836 680.87185,811.147368 681.721347,809.171276 C681.668547,809.152653 681.698707,809.261176 682.022643,809.137938 C682.481425,808.615712 682.616196,808.216723 682.96657,807.43208 C688.662415,797.32354 694.142734,787.60073 699.884389,777.614355 C700.583236,776.205708 701.020671,775.060702 701.660718,773.677653 C701.863177,773.439685 701.984274,772.824416 702.288305,772.527895 C707.26859,760.438436 713.19903,748.980338 716.394933,736.792472 C727.74674,693.501931 729.589542,649.397088 724.709082,605.003617 C723.542412,594.391857 721.15574,583.916518 719.18037,572.513754 C716.053372,574.856876 714.187551,576.52495 712.083184,577.788748 C696.480024,587.159012 681.512125,597.977318 665.056735,605.457097 C626.59164,622.941186 578.054301,609.474961 552.950191,575.70651 C551.043041,573.141207 549.200695,568.926379 549.959938,566.233393 C552.641221,556.72372 558.548719,549.040768 565.882475,542.268836 C567.710843,543.871997 569.095547,545.086132 570.748273,546.672201 C584.210676,561.139654 599.067507,572.891438 617.235716,579.797872 C647.885327,591.449102 677.183663,588.656179 704.770319,570.698224 C712.458324,565.69354 717.343493,558.672069 716.383841,548.272142 C717.065444,544.974774 717.054352,541.827772 718.343638,539.377124 C724.813541,527.079356 731.412365,514.839681 738.358219,502.810077 C752.704229,477.963813 759.362233,451.532934 756.616528,422.649837 C754.948457,405.102405 748.098096,389.33203 741.907154,372.723708 C741.299699,370.195539 740.470336,368.191895 740.356305,366.147671 C740.003424,359.824584 736.893215,358.139379 730.751426,358.229776 C708.174987,358.562164 685.586924,358.061819 663.009193,358.347649 C655.236102,358.445978 647.480408,359.9282 639.434509,360.434754 C634.78834,357.287063 630.43777,354.461606 626.058484,351.682133 C579.638046,322.219712 547.743238,295.265228 501.27551,265.878949 C491.872902,259.932741 467.10607,253.704457 455.961206,252.589802 C434.974665,250.490856 415.371309,255.807542 397.579721,266.133548 C386.793359,272.39379 377.658658,273.539064 367.483133,265.878949 C367.147611,257.018189 367.855803,248.552279 366.45036,240.459914 C362.35144,216.859054 341.916289,201.215939 318.957265,203.507904 C290.509869,206.175635 268.636722,229.981164 267.040404,258.924194 C265.496238,286.921138 277.112458,308.223521 299.149587,324.296165 C306.970274,330.000036 315.093055,335.282273 323.106096,340.728673 C323.134281,340.700316 323.193803,340.64686 323.193803,340.64686 Z" id="Path" fill="#FEFDFD"></path>
                <path d="M225.206998,739.274496 C204.639717,742.479191 188.253514,753.896937 171.119332,768.17957 C172.945735,752.330449 174.102652,738.066532 176.296584,723.967379 C187.088418,654.614456 213.410623,590.744392 244.735843,528.738281 C257.047472,504.368327 270.122965,480.392372 282.843682,456.233283 C283.694959,454.616516 284.487973,452.968489 285.720897,450.512905 C272.706779,456.20287 260.495886,461.541636 248.284955,466.880442 C248.063595,466.416831 247.842236,465.953221 247.620877,465.48961 C255.527411,454.547327 264.146605,444.052046 271.197915,432.573281 C287.87304,405.428147 303.804378,377.816526 320.031849,350.390725 C321.613967,347.716836 323.164014,345.023577 324.819843,341.904372 C324.910709,341.469411 324.851233,341.522913 325.267382,341.516201 C337.900574,348.267929 344.815281,358.213918 344.718606,372.747419 C344.604473,389.908056 344.041548,407.118169 345.067118,424.221545 C346.554499,449.027764 348.231052,473.912875 351.756745,498.481535 C356.40119,530.846158 369.105018,560.220365 390.539898,587.284574 C374.065029,581.326368 360.392603,573.870558 348.544341,563.252318 C333.072459,549.386735 321.933899,532.509832 314.892837,512.840683 C314.243221,511.025898 312.692035,509.540642 311.559505,507.902358 C309.786961,509.168005 307.946665,510.350196 306.27201,511.736578 C305.501617,512.374464 305.013123,513.385753 304.468683,514.272781 C276.86869,559.233391 254.22647,606.551785 240.514797,657.726721 C234.923388,678.595013 231.991364,700.190784 227.668103,721.857277 C226.726832,727.930848 225.966916,733.602633 225.206998,739.274496 Z" id="Path" fill="#FEFDFD"></path>
                <path d="M268.273834,883.664957 C247.265264,872.210979 240.629584,849.783428 229.045355,801.927364 C226.65504,792.052641 223.829049,785.799146 223.26184,771.048682 C222.959119,763.176305 224.706526,744.993172 224.381569,740.077928 C223.574353,727.86809 237.713751,661.730531 238.675802,658.16015 C252.388386,607.269647 275.03211,560.214251 302.633936,515.503534 C303.178413,514.621437 303.66694,513.615768 304.437383,512.981428 C306.11215,511.602751 307.952568,510.42713 309.72523,509.168518 C310.857835,510.797697 312.409124,512.274698 313.058783,514.079395 C320.100313,533.639223 331.239613,550.422323 346.712522,564.210841 C358.561571,574.770064 372.234906,582.184434 388.710869,588.109524 C367.274565,561.195739 354.569894,531.984796 349.92514,499.800056 C346.399213,475.36795 344.722548,450.621152 343.235069,425.952807 C342.20943,408.944492 342.772392,391.830034 342.886533,374.764776 C342.983214,360.312054 336.068049,350.421345 323.405852,343.735366 C314.982216,338.321274 306.865095,333.063897 299.049857,327.38687 C277.028082,311.389869 265.419956,290.187743 266.963045,262.322561 C268.558251,233.515746 290.416158,209.822255 319.045256,207.539781 C320.714177,208.821581 321.795691,209.509966 322.559378,210.457053 C329.40432,218.945859 327.754188,224.208728 317.469447,227.87232 C312.034093,229.808484 306.420677,231.68252 301.558459,234.68229 C296.149715,238.019215 291.503897,242.604606 285.387265,247.571128 C315.325854,258.344926 334.140288,278.522466 348.061264,304.404151 C358.406739,294.28956 362.903835,282.044863 367.413874,269.807452 C377.504229,276.868649 386.632566,275.728765 397.411412,269.497986 C415.190604,259.220577 434.780302,253.928913 455.752221,256.017981 C466.88932,257.12739 477.142973,260.799106 486.539031,266.71733 C532.974384,295.965307 579.342892,325.32019 625.730988,354.643951 C630.107222,357.410342 634.454762,360.222502 638.943885,363.771179 C636.660454,367.693701 634.248874,370.858502 631.199364,374.860431 C639.118873,376.832181 645.67461,378.551369 652.271569,380.091834 C680.636969,386.715568 696.163893,411.416446 692.672471,438.520396 C690.606921,454.555459 689.223333,470.677979 687.304835,486.733638 C684.824778,507.489529 677.375955,525.75619 660.096942,538.679087 C634.073051,558.142193 606.012761,561.955788 575.881836,549.46509 C574.130052,548.738833 572.094792,548.703134 570.191402,548.346146 C568.807738,547.137726 567.423999,545.929305 565.596905,544.333689 C558.268258,551.07375 552.364876,558.720544 549.685462,568.185461 C548.926748,570.865772 550.76781,575.060765 552.673631,577.613994 C577.760251,611.22352 626.263772,624.626369 664.702067,607.224566 C681.145993,599.779988 696.103463,589.012597 711.695752,579.686433 C713.798653,578.428583 715.663174,576.768359 718.787993,574.436264 C720.761987,585.785363 723.146996,596.211402 724.312854,606.77322 C729.189913,650.95776 727.348395,694.855031 716.004497,737.941832 C712.81082,750.072339 687.304835,862.734822 625.730988,918.458466 C609.525761,945.850199 533.271844,947.868654 448.026903,939.890353 C362.41358,931.877575 270.181941,886.492718 268.273834,883.664957 Z M420.238363,338.653739 C425.951876,340.958753 431.769966,343.035579 437.35609,345.618671 C447.451988,350.28713 457.372175,350.384998 467.093614,344.917471 C472.088534,342.108171 476.811217,338.810264 481.593304,335.773614 C479.982497,326.384785 475.6022,317.59498 469.424455,311.637548 C462.651558,305.106342 454.448156,301.682039 445.157511,302.876882 C429.103646,304.941463 406.52521,326.097783 402.62152,341.570287 C407.991243,340.610003 413.573383,339.611695 420.238363,338.653739 Z" id="Shape" fill="#E93E11"></path>
                <path d="M570.191402,548.346146 C571.803989,548.332995 576.945084,548.971143 578.672348,549.694946 C608.381527,562.143444 635.771923,556.386078 661.431555,536.988727 C678.468711,524.109489 684.407263,503.914022 686.852607,483.228254 C688.744251,467.226838 690.53595,453.149309 692.572588,437.16842 C696.01514,410.15604 680.510157,391.074748 652.284502,381.24209 C645.894301,379.016006 639.008023,376.825519 631.199364,374.860431 C634.20619,370.872022 636.414405,367.33972 638.943885,363.771179 C646.745283,362.513588 656.295796,360.284618 663.954746,360.187082 C686.200944,359.903558 708.457322,360.399867 730.702248,360.07016 C736.75385,359.980493 739.818388,361.652099 740.166087,367.924166 C740.278444,369.951895 743.790213,374.043857 743.897256,376.556188 C733.234175,380.578693 725.080203,386.877104 718.848128,395.668002 C709.060917,409.473908 709.091036,420.951481 708.548566,437.16842 C708.015155,453.115899 708.847685,464.335106 708.548566,480.294026 C708.314947,492.756854 705.71525,510.755737 701.069862,522.491227 C693.424086,541.806472 698.223042,551.627359 718.684711,549.062535 C719.722043,558.910782 712.677762,565.859918 705.102649,570.824219 C677.921077,588.637273 649.05296,591.40766 618.85341,579.850443 C600.951985,572.999736 583.456122,562.696863 570.191402,548.346146 Z" id="Path" fill="#7C0A1A"></path>
                <path d="M718.684711,549.062535 C697.75627,552.075575 691.533128,544.356677 699.318402,525.165932 C704.048545,513.506087 705.801379,501.375526 706.039261,488.99303 C706.343837,473.136977 705.885526,457.261096 706.42867,441.416411 C706.981038,425.304003 708.882348,409.384919 718.848128,395.668002 C725.193908,386.933768 732.933985,380.054104 743.897256,376.556188 C750.503405,392.421117 757.376326,407.96341 759.04989,425.25706 C761.804637,453.722431 755.124707,479.771049 740.731454,504.257971 C733.762726,516.113595 727.142171,528.176252 720.650961,540.296162 C719.35743,542.711367 719.368559,545.812855 718.684711,549.062535 Z" id="Path" fill="#E73E12"></path>
                <path d="M369.000269,268.483091 C364.820332,281.698988 358.416567,294.310762 348.061264,304.404151 C334.127063,278.576718 315.354296,258.322343 285.387265,247.571128 C291.509708,242.615016 294.393436,237.602458 299.807319,234.272528 C304.674156,231.279047 313.833104,229.248929 319.045256,226.613622 C322.559378,224.836852 326.123533,221.282078 321.833033,211.839754 C321.313403,210.696177 320.181978,208.718341 319.045256,207.539781 C341.274582,204.79091 362.061576,219.487719 369.000269,242.021622 C371.558001,250.328039 368.664663,259.682519 369.000269,268.483091 Z" id="Path" fill="#7C0A1A"></path>
                <path d="M420.238363,338.653739 C414.036938,339.652439 408.059506,340.589811 402.62152,341.570287 C406.574836,325.772442 431.713296,302.64081 447.971247,300.532817 C457.380002,299.31285 465.68769,302.809156 472.546688,309.477694 C478.802968,315.560394 483.23895,324.535022 484.870234,334.121271 C480.027355,337.221773 474.95162,340.416641 470.186215,343.457396 C460.416922,349.69108 449.504523,351.374595 439.28028,346.607972 C433.623141,343.970565 426.572794,341.027822 420.238363,338.653739 Z" id="Path" fill="#7A091A"></path>
            </g>
        </g>
    </g>
</svg>